Coordinates
version=1
nRows=8
nColumns=40
inDegrees=yes

Units are S.I. units (second, meters, Newtons, ...)
If the header above contains a line with 'inDegrees', this indicates whether rotational values are in degrees (yes) or radians (no).

endheader
time	pelvis_tilt	pelvis_list	pelvis_rotation	pelvis_tx	pelvis_ty	pelvis_tz	hip_flexion_r	hip_adduction_r	hip_rotation_r	knee_angle_r	knee_angle_r_beta	ankle_angle_r	subtalar_angle_r	mtp_angle_r	hip_flexion_l	hip_adduction_l	hip_rotation_l	knee_angle_l	knee_angle_l_beta	ankle_angle_l	subtalar_angle_l	mtp_angle_l	lumbar_extension	lumbar_bending	lumbar_rotation	arm_flex_r	arm_add_r	arm_rot_r	elbow_flex_r	pro_sup_r	wrist_flex_r	wrist_dev_r	arm_flex_l	arm_add_l	arm_rot_l	elbow_flex_l	pro_sup_l	wrist_flex_l	wrist_dev_l
     13.00000000	     36.79201912	    -11.52675840	    179.15922409	      0.31931776	      0.70196494	     -0.61466183	     95.52758052	     -5.76832492	     10.75049352	     81.77580297	      1.42725701	     25.52010757	      0.00000000	      0.00000000	     88.53518261	     -6.12211785	    -12.20066402	     79.24281294	      1.38304799	     27.39451986	      0.00000000	      0.00000000	    -46.82356883	     -8.47669929	     -8.18263235	     62.85082577	    -13.93237702	     59.59281014	      9.37345150	     11.64666124	      0.00000000	      0.00000000	     69.80197110	    -19.71371104	     46.42198576	     16.86509096	     87.65940738	      0.00000000	      0.00000000
     13.00500000	     36.78492165	    -11.53276882	    179.05691857	      0.31921867	      0.70201875	     -0.61496096	     95.50015160	     -5.62261003	     10.77610186	     81.75663298	      1.42692243	     25.49909450	      0.00000000	      0.00000000	     88.51163522	     -6.30151766	    -12.26802492	     79.29578425	      1.38397252	     27.40839323	      0.00000000	      0.00000000	    -46.83867844	     -8.56317737	     -8.12510024	     62.85488492	    -13.92325182	     59.61555855	      9.37713843	     11.64809147	      0.00000000	      0.00000000	     69.78834081	    -19.70109085	     46.39505168	     16.86133323	     87.65604173	      0.00000000	      0.00000000
     13.01000000	     36.77335658	    -11.55596482	    178.94409093	      0.31904198	      0.70199443	     -0.61527618	     95.47278021	     -5.50782939	     10.77741998	     81.74305912	      1.42668552	     25.49440307	      0.00000000	      0.00000000	     88.48563744	     -6.40376813	    -12.28672806	     79.31125207	      1.38424248	     27.42473533	      0.00000000	      0.00000000	    -46.83829172	     -8.67238841	     -8.05505687	     62.83390093	    -13.91476678	     59.64568575	      9.36779031	     11.64793562	      0.00000000	      0.00000000	     69.79169416	    -19.70715523	     46.37394823	     16.85690401	     87.65328378	      0.00000000	      0.00000000
     13.01500000	     36.83286518	    -11.64365917	    179.07165755	      0.31893337	      0.70188356	     -0.61494738	     95.59012218	     -5.72741942	     10.79095415	     81.78841821	      1.42747719	     25.57040456	      0.00000000	      0.00000000	     88.53152078	     -6.24524989	    -12.32744896	     79.32548845	      1.38449095	     27.38568641	      0.00000000	      0.00000000	    -46.78747008	     -8.64652280	     -8.19536025	     62.81027005	    -13.92291859	     59.81606800	      9.32726232	     11.64796017	      0.00000000	      0.00000000	     69.76034252	    -19.66022172	     46.32102294	     16.79931432	     87.64955450	      0.00000000	      0.00000000
     13.02000000	     36.81877089	    -11.65571113	    178.93985160	      0.31879719	      0.70193637	     -0.61540949	     95.53811927	     -5.54814130	     10.79079138	     81.76563680	      1.42707958	     25.54513749	      0.00000000	      0.00000000	     88.50269455	     -6.38219592	    -12.32150884	     79.34475850	      1.38482728	     27.41412784	      0.00000000	      0.00000000	    -46.81072068	     -8.77709053	     -8.11589516	     62.78725969	    -13.90799527	     59.84125401	      9.32887592	     11.64880045	      0.00000000	      0.00000000	     69.78040788	    -19.66707021	     46.30381800	     16.81048344	     87.64857614	      0.00000000	      0.00000000
     13.02500000	     36.88216355	    -11.73078717	    179.09338998	      0.31873247	      0.70183722	     -0.61492823	     95.65319840	     -5.75073945	     10.86551431	     81.81622864	      1.42796257	     25.55952183	      0.00000000	      0.00000000	     88.56547335	     -6.12907331	    -12.31619798	     79.30269769	      1.38409318	     27.42048759	      0.00000000	      0.00000000	    -46.74910994	     -8.70123471	     -8.24142520	     62.77578038	    -13.96506993	     60.05378870	      9.32568762	     11.65280375	      0.00000000	      0.00000000	     69.73344620	    -19.61010271	     46.27708487	     16.76819074	     87.65404075	      0.00000000	      0.00000000
     13.03000000	     36.86639536	    -11.74706832	    178.94846327	      0.31861387	      0.70188872	     -0.61542776	     95.61251772	     -5.58709160	     10.84384126	     81.79449113	      1.42758318	     25.53478805	      0.00000000	      0.00000000	     88.52863607	     -6.29646488	    -12.31598754	     79.32850459	      1.38454360	     27.44681725	      0.00000000	      0.00000000	    -46.76893724	     -8.84336112	     -8.15790436	     62.75465380	    -13.94698477	     60.07941028	      9.33171443	     11.65418464	      0.00000000	      0.00000000	     69.75999752	    -19.61873008	     46.26236450	     16.77565836	     87.65224326	      0.00000000	      0.00000000
     13.03500000	     36.88596237	    -11.78585481	    178.99051554	      0.31849544	      0.70180518	     -0.61526079	     95.63815623	     -5.66555058	     10.86820910	     81.79682749	      1.42762396	     25.56604903	      0.00000000	      0.00000000	     88.55336179	     -6.23939076	    -12.36662022	     79.34767271	      1.38487814	     27.45941233	      0.00000000	      0.00000000	    -46.73876027	     -8.82116011	     -8.18976712	     62.75180506	    -13.98422560	     60.18371603	      9.34012726	     11.65826937	      0.00000000	      0.00000000	     69.72478645	    -19.57214242	     46.26657600	     16.73276288	     87.65200620	      0.00000000	      0.00000000
